<svg xmlns="http://www.w3.org/2000/svg" viewBox="0 0 512 512" width="512" height="512">
  <defs>
    <linearGradient id="jnTile" x1="0" y1="0" x2="0" y2="1">
      <stop offset="0" stop-color="#101a33"/>
      <stop offset="1" stop-color="#080e1c"/>
    </linearGradient>
    <radialGradient id="jnGlow" cx="0.5" cy="0.42" r="0.55">
      <stop offset="0" stop-color="#2f6dd1" stop-opacity="0.45"/>
      <stop offset="1" stop-color="#2f6dd1" stop-opacity="0"/>
    </radialGradient>
  </defs>
  <rect width="512" height="512" rx="112" fill="url(#jnTile)"/>
  <rect width="512" height="512" rx="112" fill="url(#jnGlow)"/>
  <g transform="translate(28.20 -181.75) scale(0.85)">
    <path fill="#4FA2FB" d="M162.422134,478.968445 C163.913452,440.617279 181.321854,411.402924 213.434708,390.858551 C226.223389,382.676910 240.364487,377.917603 256.263977,376.534210 C262.805573,377.229614 268.997467,375.714874 273.871063,380.482361 C280.214294,386.687469 286.630188,392.818268 293.161682,399.283569 C295.540863,403.002380 297.773254,406.418640 299.894226,410.158752 C288.529510,421.813477 277.271729,433.139893 266.024017,444.476257 C254.309616,456.283051 242.604889,468.099426 230.651276,480.032745 C229.954910,480.454041 229.503189,480.754211 228.754089,480.753143 C227.816711,480.314728 227.176651,480.057373 226.536774,480.057800 C205.323456,480.072845 184.110138,480.112549 162.896835,480.148651 C162.896835,480.148651 162.883072,480.106171 162.883209,479.875214 C162.821564,479.356232 162.667831,479.130951 162.422134,478.968445 z"></path>
    <path fill="#2260C4" d="M229.051453,481.054382 C229.503189,480.754211 229.954910,480.454041 231.129700,480.065582 C263.223053,479.989105 294.593353,480.000946 326.435852,480.031921 C335.807190,480.051025 344.706360,480.051025 354.295410,480.051025 C353.811951,475.968597 353.559845,472.709198 353.023773,469.497162 C349.555023,448.712372 340.789459,430.715454 324.505890,416.944122 C318.969177,412.261658 312.855804,408.261047 307.155792,403.655334 C310.158447,400.457214 313.158813,397.679260 315.803375,394.596069 C317.180695,392.990326 317.930481,390.846313 318.963715,388.945435 C341.133911,400.904541 356.807312,418.915680 365.766327,442.156311 C369.896179,452.869598 371.407501,464.629791 373.629700,476.008331 C374.057281,478.197815 372.808136,481.214020 371.392517,483.167755 C367.604858,488.395111 363.455536,493.388000 359.107635,498.162354 C358.011841,499.365570 355.632599,499.895111 353.841858,499.898010 C306.529999,499.975006 259.217957,499.942108 211.534744,499.560791 C217.126175,493.147217 223.088821,487.100800 229.051453,481.054382 z"></path>
    <path fill="#4FA2FB" d="M209.854294,556.000000 C209.854233,540.891846 209.854233,526.283691 209.854233,511.369995 C216.521149,511.369995 222.610901,511.369995 229.183395,511.369995 C229.183395,514.661438 229.164963,517.915100 229.186417,521.168457 C229.314880,540.649231 229.487717,560.129761 229.572845,579.610779 C229.618118,589.968811 227.241821,599.436401 219.027496,606.594971 C209.821594,614.617737 199.235016,616.793274 187.833755,612.872620 C176.395004,608.939148 168.788879,600.571045 167.320038,588.623230 C166.074188,578.489380 167.063034,568.080750 167.063034,557.719421 C173.690964,556.241455 182.075180,561.212219 184.744034,569.201843 C186.084152,573.213684 186.411774,577.652039 186.641647,581.927368 C187.068222,589.861328 191.357574,594.961975 198.083267,594.910339 C204.808792,594.858704 209.698242,589.609863 209.817169,581.982483 C209.949585,573.490234 209.851868,564.994324 209.854294,556.000000 z"></path>
    <path fill="#2D6DDE" d="M242.925446,587.002319 C241.441910,565.943420 248.476791,548.641357 262.791199,534.031128 C268.895081,527.801086 272.650208,520.291931 273.555695,511.332672 C280.167877,511.332672 286.400757,511.332672 292.958954,511.332672 C292.726776,522.297363 288.894653,531.695984 282.812408,540.236267 C279.725708,544.570496 276.320190,548.695923 272.843628,552.730286 C265.912415,560.773560 262.437958,570.030457 262.391724,580.632019 C262.360474,587.793457 262.614410,594.985962 262.040771,602.108154 C261.221558,612.278320 253.898483,618.981995 242.925903,619.782715 C242.925903,608.997437 242.925903,598.249634 242.925446,587.002319 z"></path>
    <path fill="#83BDF9" d="M228.754074,480.753143 C223.088821,487.100800 217.126175,493.147217 211.067535,499.503357 C201.057922,499.861053 191.142227,500.024658 181.232681,499.846252 C179.525864,499.815521 177.353043,498.750885 176.238495,497.444580 C171.640472,492.055481 167.367065,486.389404 162.935608,480.486877 C184.110138,480.112549 205.323456,480.072845 226.536774,480.057800 C227.176651,480.057373 227.816711,480.314728 228.754074,480.753143 z"></path>
    <path fill="#2D6DDE" d="M318.759857,388.670135 C317.930481,390.846313 317.180695,392.990326 315.803375,394.596069 C313.158813,397.679260 310.158447,400.457214 306.929199,403.656372 C306.552765,403.950958 306.099854,403.934845 305.846436,403.687500 C301.400299,401.953735 297.207550,400.467377 293.014832,398.981018 C286.630188,392.818268 280.214294,386.687469 273.871063,380.482361 C268.997467,375.714874 262.805573,377.229614 256.670532,376.638550 C260.684082,376.154816 265.046173,375.801117 269.906250,375.653320 C270.908264,375.790710 271.412323,375.722198 271.916351,375.653687 C288.453033,376.276367 304.079712,380.230072 318.759857,388.670135 z"></path>
    <path fill="#2D6DDE" d="M318.986481,608.020935 C309.917999,601.579712 306.524597,592.402588 306.487122,581.709595 C306.423035,563.417969 306.465576,545.125916 306.463684,526.834045 C306.463135,521.721252 306.463623,516.608521 306.463623,511.294922 C313.234528,511.294922 319.472260,511.294922 326.109741,511.294922 C326.109741,525.817871 326.121124,540.094666 326.105652,554.371399 C326.095917,563.350769 326.102448,572.330811 325.992432,581.309265 C325.928375,586.536499 327.546570,590.915710 332.299377,593.439026 C337.028229,595.949585 341.623749,595.126953 346.275055,591.817566 C346.739777,591.768555 347.034424,592.034302 346.862915,592.346619 C342.718750,597.542847 337.158234,596.878906 332.453461,595.351379 C327.161224,593.632996 324.067688,588.920105 324.037079,583.069092 C323.933441,563.267456 323.997559,543.465088 323.997559,523.662964 C323.997559,512.918091 323.993988,513.108765 313.226532,512.906433 C309.060303,512.828186 307.879272,514.086670 307.916199,518.233093 C308.108887,539.863953 307.849274,561.499512 308.142944,583.128113 C308.199310,587.278259 309.436493,591.677368 311.191315,595.470154 C313.231079,599.878845 316.440582,603.746216 319.103058,607.891235 C319.063721,607.934021 318.986481,608.020935 318.986481,608.020935 z"></path>
    <path fill="#4FA2FB" d="M261.841064,512.780518 C259.062653,518.021545 256.591705,523.045044 253.473312,527.628052 C250.619370,531.822388 247.065659,535.540588 243.258850,540.148132 C243.258850,530.138916 243.258850,520.990356 243.258850,510.572754 C249.533890,511.179199 255.700104,511.775116 261.841064,512.780518 z"></path>
    <path fill="#2D6DDE" d="M357.460815,561.436646 C361.049042,559.695679 364.637268,557.954712 368.479858,556.090332 C368.479858,568.475403 370.130951,579.842773 368.135284,590.529114 C364.013336,612.601196 338.133026,621.641357 319.149475,608.314453 C318.986481,608.020935 319.063721,607.934021 319.468170,607.945435 C321.257660,608.475037 322.699463,608.878174 324.019104,609.529053 C342.077057,618.435059 363.358917,608.957031 366.876465,589.077820 C368.549835,579.620789 367.482788,569.678101 367.619934,559.954895 C367.622894,559.747131 367.174805,559.532959 366.593628,559.016479 C363.875000,559.981750 360.957581,561.017639 357.900574,561.894348 C357.760956,561.735229 357.460815,561.436646 357.460815,561.436646 z"></path>
    <path fill="#2260C4" d="M290.513245,549.547058 C291.131470,548.609070 291.749695,547.671143 292.951233,545.848145 C293.071716,548.280884 293.198608,549.667175 293.200134,551.053528 C293.217987,567.133667 293.211090,583.213806 293.223267,599.293945 C293.229523,607.548157 291.645477,615.426025 287.417480,622.923706 C287.083496,623.079163 286.959045,622.973328 287.012360,622.601318 C290.998657,613.095459 292.274841,603.552490 292.069305,593.641052 C291.804016,580.847046 292.039795,568.043152 291.959076,555.244141 C291.948181,553.517822 291.351257,551.795227 290.903137,549.934448 C290.780609,549.798096 290.513245,549.547058 290.513245,549.547058 z"></path>
    <path fill="#2260C4" d="M268.278961,643.328552 C260.785522,648.592224 252.307251,650.239868 243.104645,650.549866 C243.104645,644.019165 243.104645,637.918945 243.104645,633.335083 C250.224518,629.909668 256.562256,626.860535 263.325806,623.779297 C263.751587,623.747131 264.011108,624.011658 263.857208,624.316895 C258.557953,627.082886 253.373749,629.467041 248.290375,632.049683 C246.724197,632.845459 244.353012,634.058472 244.210938,635.294250 C243.709808,639.653442 244.016006,644.105530 244.016006,648.833313 C253.157684,649.402100 260.506683,645.931519 268.051453,643.053955 C268.127380,643.145386 268.278961,643.328552 268.278961,643.328552 z"></path>
    <path fill="#276CE5" d="M325.963654,480.012787 C294.593353,480.000946 263.223053,479.989105 231.374329,479.944427 C242.604889,468.099426 254.309616,456.283051 266.024017,444.476257 C277.271729,433.139893 288.529510,421.813477 300.225372,410.175659 C301.109528,409.887482 301.551178,409.906342 302.024780,410.282959 C303.194733,412.453613 304.339905,414.261902 305.469482,416.079926 C317.645905,435.677185 324.820587,456.878418 325.963654,480.012787 z"></path>
    <path fill="#83BDF9" d="M301.992798,409.925171 C301.551178,409.906342 301.109528,409.887482 300.336761,409.851746 C297.773254,406.418640 295.540863,403.002380 293.161682,399.283569 C297.207550,400.467377 301.400299,401.953735 305.694153,403.994019 C304.527802,406.340302 303.260284,408.132751 301.992798,409.925171 z"></path>
    <path fill="#4FA2FB" d="M302.024780,410.282959 C303.260284,408.132751 304.527802,406.340302 305.947571,404.241364 C306.099854,403.934845 306.552765,403.950958 306.779358,403.949921 C312.855804,408.261047 318.969177,412.261658 324.505890,416.944122 C340.789459,430.715454 349.555023,448.712372 353.023773,469.497162 C353.559845,472.709198 353.811951,475.968597 354.295410,480.051025 C344.706360,480.051025 335.807190,480.051025 326.435852,480.031921 C324.820587,456.878418 317.645905,435.677185 305.469482,416.079926 C304.339905,414.261902 303.194733,412.453613 302.024780,410.282959 z"></path>
    <path fill="#276CE5" d="M346.862915,592.346619 C348.354584,589.526489 350.265137,587.149353 350.856079,584.480103 C351.733826,580.515198 351.060455,576.160217 352.202576,572.314392 C353.231232,568.850525 355.814148,565.848145 357.875854,562.347900 C360.957581,561.017639 363.875000,559.981750 366.593628,559.016479 C367.174805,559.532959 367.622894,559.747131 367.619934,559.954895 C367.482788,569.678101 368.549835,579.620789 366.876465,589.077820 C363.358917,608.957031 342.077057,618.435059 324.019104,609.529053 C322.699463,608.878174 321.257660,608.475037 319.507507,607.902649 C316.440582,603.746216 313.231079,599.878845 311.191315,595.470154 C309.436493,591.677368 308.199310,587.278259 308.142944,583.128113 C307.849274,561.499512 308.108887,539.863953 307.916199,518.233093 C307.879272,514.086670 309.060303,512.828186 313.226532,512.906433 C323.993988,513.108765 323.997559,512.918091 323.997559,523.662964 C323.997559,543.465088 323.933441,563.267456 324.037079,583.069092 C324.067688,588.920105 327.161224,593.632996 332.453461,595.351379 C337.158234,596.878906 342.718750,597.542847 346.862915,592.346619 z"></path>
  </g>
</svg>
