<svg version="1.1" id="Layer_1" xmlns="http://www.w3.org/2000/svg" xmlns:xlink="http://www.w3.org/1999/xlink" x="0px" y="0px"
	 width="100%" viewBox="0 0 1024 1024" enable-background="new 0 0 1024 1024" xml:space="preserve">
<path fill="#FFFFFF" opacity="1.000000" stroke="none" 
	d="
M543.000000,1025.000000 
	C362.357483,1025.000000 181.714981,1025.000000 1.036231,1025.000000 
	C1.036231,683.736450 1.036231,342.472900 1.036231,1.104682 
	C342.217865,1.104682 683.435791,1.104682 1025.000000,1.104682 
	C1025.000000,174.694550 1025.000000,348.389313 1024.611206,522.542419 
	C1016.786865,523.973267 1015.384644,532.269165 1009.501648,535.183777 
	C1008.645264,535.608093 1008.324768,537.658264 1007.613098,537.742188 
	C1002.919434,538.295898 1001.739319,541.165100 1001.677185,545.346375 
	C1001.641357,547.757507 1000.900085,550.158142 1000.419312,552.887085 
	C994.019348,551.690369 993.691589,555.983337 993.748413,560.310486 
	C993.013245,560.587585 992.575623,560.827942 992.109131,560.916931 
	C985.119202,562.250244 979.480957,568.818420 978.941467,575.832275 
	C978.655273,579.553406 978.505798,583.517273 973.913269,585.187378 
	C972.956726,585.535156 972.563782,587.282654 971.770630,588.272644 
	C970.991882,589.244690 970.129700,590.708069 969.139221,590.856628 
	C964.654053,591.529602 963.230835,594.642151 962.712402,597.728027 
	C960.099854,599.220520 957.597168,599.996460 956.045593,601.659607 
	C951.447327,606.588806 948.677368,613.276245 941.743896,615.956360 
	C940.900513,616.282410 940.519531,617.810364 939.929504,618.784546 
	C939.337280,619.762390 938.927185,620.925964 938.132812,621.692749 
	C934.599487,625.103271 929.688416,627.775879 927.661560,631.890625 
	C924.865967,637.565979 917.731262,637.702332 915.455811,643.582703 
	C914.499512,646.053955 911.839478,647.902344 909.833984,649.914246 
	C908.978210,650.772644 907.799561,651.302734 906.796326,652.022034 
	C905.352417,653.057190 903.828491,654.014282 902.532654,655.214050 
	C900.919983,656.707153 899.027039,658.179810 898.100281,660.074585 
	C895.953186,664.464539 893.747620,668.549438 888.586060,669.977905 
	C888.302734,670.056274 888.316589,670.934143 888.025330,671.310730 
	C887.250488,672.312134 886.570312,673.611389 885.523254,674.139587 
	C880.340759,676.753601 879.633789,684.368591 872.960449,685.301880 
	C872.567261,685.356873 872.417542,686.503479 871.972046,686.966553 
	C870.965698,688.012573 869.987000,689.211304 868.745361,689.882263 
	C864.332581,692.266602 863.761597,698.953491 857.802490,699.585876 
	C857.550964,699.612549 857.460205,700.496033 857.164917,700.880920 
	C855.857178,702.585999 854.539795,704.286621 853.150940,705.925415 
	C852.212036,707.033386 851.154541,708.041748 850.138977,709.083740 
	C848.820557,710.436401 847.521179,711.809814 846.155884,713.113892 
	C845.218384,714.009155 844.132202,714.749451 843.201050,715.650452 
	C841.265442,717.523315 839.310547,719.387268 837.519226,721.393860 
	C836.557129,722.471558 835.168457,723.892456 835.255005,725.063721 
	C835.776001,732.114929 830.505737,733.551941 825.743286,736.080322 
	C821.110046,738.540039 817.013916,742.011963 812.687561,745.047485 
	C812.561829,745.135681 812.445251,745.306580 812.418213,745.455933 
	C811.203064,752.168152 802.974609,752.279785 800.603027,758.083679 
	C799.561218,760.633362 797.810852,764.139648 795.678345,764.749207 
	C790.560059,766.212402 787.568909,769.147095 785.430359,773.683655 
	C784.574280,775.499756 783.172791,777.090820 781.855286,778.645081 
	C781.079895,779.559814 779.961487,780.872253 779.032959,780.843811 
	C775.821167,780.745483 774.233276,782.031921 773.290894,785.081116 
	C772.872070,786.436646 771.042297,787.312134 769.999329,788.530823 
	C768.905945,789.808594 768.130859,791.375244 766.967163,792.573303 
	C763.209595,796.442078 759.378052,800.242493 755.467651,803.956177 
	C754.832581,804.559265 753.049927,804.346680 752.820007,804.920715 
	C751.192322,808.982483 749.192871,812.532837 744.425659,813.451599 
	C743.174683,820.441956 733.819092,819.664246 732.081909,826.361694 
	C731.651489,828.021423 730.031372,829.408203 728.843933,830.824646 
	C727.927734,831.917725 726.876038,833.665527 725.809692,833.722595 
	C722.393494,833.905396 722.220825,837.379456 720.670837,838.378906 
	C716.101685,841.325684 713.643555,845.593201 710.357300,849.475037 
	C707.422729,852.941223 702.594971,854.799133 698.628784,857.406372 
	C698.242493,857.660278 698.025696,858.184387 697.754395,858.598877 
	C695.307983,862.336121 692.891357,866.093323 690.395264,869.796997 
	C690.061829,870.291626 689.300964,870.868469 688.793640,870.820435 
	C680.395325,870.025757 682.407227,881.364502 675.457336,882.300537 
	C675.171814,882.339050 675.192139,883.866699 674.866272,884.611389 
	C674.552124,885.329346 673.935303,886.522339 673.517456,886.495056 
	C668.245361,886.150757 667.029175,889.779785 665.966736,893.763855 
	C665.793335,894.413940 664.874573,895.067078 664.156799,895.337524 
	C659.495605,897.093384 659.336304,904.769470 652.753723,904.014282 
	C652.578979,903.994141 652.350769,904.863159 652.071594,905.264954 
	C649.298340,909.256165 646.535889,913.255615 643.687500,917.192810 
	C643.365112,917.638428 642.441223,917.599304 641.955322,917.985168 
	C640.190613,919.386780 638.471130,920.848145 636.779602,922.338135 
	C635.843567,923.162598 635.060974,924.166870 634.098694,924.955261 
	C629.973877,928.334412 625.803894,931.658386 621.667419,935.023438 
	C621.430359,935.216309 621.387146,935.629944 621.181580,935.882019 
	C619.952332,937.388184 618.471008,938.742126 617.503052,940.397827 
	C614.940186,944.781494 612.445679,949.128174 607.504700,951.365967 
	C607.072632,951.561707 607.053467,952.896179 607.020447,953.708923 
	C606.806091,958.977844 603.451782,960.901489 598.860779,962.139404 
	C595.755066,962.976929 592.539795,964.315369 590.029907,966.271790 
	C584.265869,970.764526 582.552795,978.275696 577.647156,983.766846 
	C574.056458,987.786194 572.769348,993.796509 565.885559,994.356873 
	C567.767395,999.754028 564.813782,1001.239075 561.078918,1000.884155 
	C555.507141,1000.354675 553.191895,1001.936218 553.794312,1007.901550 
	C553.991150,1009.850647 552.310242,1013.119873 550.611633,1013.916504 
	C545.660095,1016.238708 543.385986,1019.826904 543.000000,1025.000000 
M289.225555,550.916443 
	C289.084167,551.212769 288.942810,551.509094 288.227966,552.062988 
	C287.332642,553.221619 286.437347,554.380249 285.127625,555.809570 
	C284.871338,556.039368 284.710541,556.323242 284.199738,556.884766 
	C283.933685,557.112732 283.781372,557.400818 283.162140,558.033508 
	C282.022980,559.593140 280.883820,561.152771 279.196991,563.022583 
	C278.700836,563.929810 278.204681,564.837036 277.165009,566.150024 
	C276.190552,568.791992 274.576111,571.384338 274.366486,574.085693 
	C273.826477,581.044495 273.616852,588.059998 273.818054,595.037170 
	C274.049622,603.069702 272.733612,610.602478 268.116455,617.924988 
	C267.414734,618.953247 266.712982,619.981445 265.495789,621.201782 
	C265.159607,621.634949 264.823425,622.068054 264.088043,622.745972 
	C263.837433,622.943604 263.642242,623.185913 262.900024,623.811462 
	C256.562256,626.860535 250.224518,629.909668 243.104645,633.335083 
	C243.104645,637.918945 243.104645,644.019165 243.104645,650.549866 
	C252.307251,650.239868 260.785522,648.592224 268.908813,643.194519 
	C269.921356,642.446167 270.933899,641.697754 272.538605,640.862976 
	C273.117523,640.337769 273.696442,639.812561 274.759247,639.151062 
	C274.981873,638.908142 275.204498,638.665283 275.871094,638.233765 
	C276.144867,638.049255 276.349884,637.806702 276.906982,637.287170 
	C277.165161,637.094727 277.366211,636.854553 277.923615,636.315552 
	C278.171906,636.102905 278.366882,635.849243 278.921143,635.306274 
	C279.170410,635.096924 279.365875,634.845642 279.922058,634.267090 
	C280.088684,633.980164 280.255310,633.693298 280.861023,633.174316 
	C281.131439,632.955811 281.295837,632.675232 281.795288,632.092224 
	C281.930176,631.793518 282.065063,631.494812 282.762634,630.927429 
	C283.279541,630.042847 283.796478,629.158264 284.849945,627.898438 
	C285.635406,626.327881 286.420868,624.757324 287.751434,622.768311 
	C291.645477,615.426025 293.229523,607.548157 293.223267,599.293945 
	C293.211090,583.213806 293.217987,567.133667 293.200134,551.053528 
	C293.198608,549.667175 293.071716,548.280884 292.951233,545.848145 
	C291.749695,547.671143 291.131470,548.609070 290.111389,549.825989 
	C289.866455,550.063477 289.720673,550.351196 289.225555,550.916443 
M356.880737,561.748230 
	C351.454498,566.145203 349.693542,571.968750 349.360138,578.784119 
	C349.151093,583.057068 347.473999,587.258179 345.810333,591.866577 
	C341.623749,595.126953 337.028229,595.949585 332.299377,593.439026 
	C327.546570,590.915710 325.928375,586.536499 325.992432,581.309265 
	C326.102448,572.330811 326.095917,563.350769 326.105652,554.371399 
	C326.121124,540.094666 326.109741,525.817871 326.109741,511.294922 
	C319.472260,511.294922 313.234528,511.294922 306.463623,511.294922 
	C306.463623,516.608521 306.463135,521.721252 306.463684,526.834045 
	C306.465576,545.125916 306.423035,563.417969 306.487122,581.709595 
	C306.524597,592.402588 309.917999,601.579712 319.312500,608.607971 
	C338.133026,621.641357 364.013336,612.601196 368.135284,590.529114 
	C370.130951,579.842773 368.479858,568.475403 368.479858,556.090332 
	C364.637268,557.954712 361.049042,559.695679 356.880737,561.748230 
M269.408234,375.447388 
	C265.046173,375.801117 260.684082,376.154816 255.508896,376.299866 
	C240.364487,377.917603 226.223389,382.676910 213.434708,390.858551 
	C181.321854,411.402924 163.913452,440.617279 162.264435,479.412354 
	C162.314148,479.770416 162.515732,479.987549 162.883072,480.106171 
	C162.883072,480.106171 162.896835,480.148651 162.974365,480.825104 
	C167.367065,486.389404 171.640472,492.055481 176.238495,497.444580 
	C177.353043,498.750885 179.525864,499.815521 181.232681,499.846252 
	C191.142227,500.024658 201.057922,499.861053 211.905960,499.927948 
	C259.217957,499.942108 306.529999,499.975006 353.841858,499.898010 
	C355.632599,499.895111 358.011841,499.365570 359.107635,498.162354 
	C363.455536,493.388000 367.604858,488.395111 371.392517,483.167755 
	C372.808136,481.214020 374.057281,478.197815 373.629700,476.008331 
	C371.407501,464.629791 369.896179,452.869598 365.766327,442.156311 
	C356.807312,418.915680 341.133911,400.904541 318.556000,388.394836 
	C304.079712,380.230072 288.453033,376.276367 271.338196,375.334656 
	C270.921265,375.429413 270.504333,375.524170 269.408234,375.447388 
M209.854355,556.500000 
	C209.851868,564.994324 209.949585,573.490234 209.817169,581.982483 
	C209.698242,589.609863 204.808792,594.858704 198.083267,594.910339 
	C191.357574,594.961975 187.068222,589.861328 186.641647,581.927368 
	C186.411774,577.652039 186.084152,573.213684 184.744034,569.201843 
	C182.075180,561.212219 173.690964,556.241455 167.063034,557.719421 
	C167.063034,568.080750 166.074188,578.489380 167.320038,588.623230 
	C168.788879,600.571045 176.395004,608.939148 187.833755,612.872620 
	C199.235016,616.793274 209.821594,614.617737 219.027496,606.594971 
	C227.241821,599.436401 229.618118,589.968811 229.572845,579.610779 
	C229.487717,560.129761 229.314880,540.649231 229.186417,521.168457 
	C229.164963,517.915100 229.183395,514.661438 229.183395,511.369995 
	C222.610901,511.369995 216.521149,511.369995 209.854233,511.369995 
	C209.854233,526.283691 209.854233,540.891846 209.854355,556.500000 
M242.925903,587.501770 
	C242.925903,598.249634 242.925903,608.997437 242.925903,619.782715 
	C253.898483,618.981995 261.221558,612.278320 262.040771,602.108154 
	C262.614410,594.985962 262.360474,587.793457 262.391724,580.632019 
	C262.437958,570.030457 265.912415,560.773560 272.843628,552.730286 
	C276.320190,548.695923 279.725708,544.570496 282.812408,540.236267 
	C288.894653,531.695984 292.726776,522.297363 292.958954,511.332672 
	C286.400757,511.332672 280.167877,511.332672 273.555695,511.332672 
	C272.650208,520.291931 268.895081,527.801086 262.791199,534.031128 
	C248.476791,548.641357 241.441910,565.943420 242.925903,587.501770 
M696.712097,511.444122 
	C696.712097,514.426880 696.712097,517.409668 696.712097,520.392456 
	C683.875183,506.418243 672.128174,492.437866 660.876526,478.069641 
	C657.539795,473.808655 654.127502,472.168030 648.984741,473.564270 
	C648.984741,495.562317 648.984741,517.584900 648.984741,539.535034 
	C652.278076,539.535034 655.190674,539.535034 658.778015,539.535034 
	C658.778015,523.749756 658.778015,508.255707 658.778015,491.498077 
	C660.878601,493.890594 662.091675,495.180542 663.203369,496.552765 
	C673.573486,509.352570 684.147644,521.996887 694.160156,535.071045 
	C697.531311,539.472961 701.109253,540.676208 706.372681,539.413452 
	C706.372681,517.463135 706.372681,495.439728 706.372681,473.366455 
	C703.076172,473.366455 700.128723,473.366455 696.706787,473.366455 
	C696.706787,485.866486 696.706787,498.161377 696.712097,511.444122 
M509.728882,490.705658 
	C495.267639,484.278107 479.412201,488.746399 472.704407,501.139648 
	C466.277435,513.014038 469.814026,528.117432 480.420593,535.404358 
	C492.624756,543.788818 514.433533,540.811462 519.380066,531.548523 
	C516.874390,528.923523 514.283020,526.208740 511.744843,523.549744 
	C499.910400,531.483765 487.073059,528.990356 484.866821,518.225098 
	C497.534637,518.225098 510.121887,518.225098 522.921082,518.225098 
	C523.692322,506.524109 520.743591,497.077484 509.728882,490.705658 
M599.248413,558.051208 
	C609.382202,557.407654 614.265442,550.632202 617.780823,542.224182 
	C624.824829,525.376160 631.896484,508.539642 638.937012,491.690094 
	C639.344788,490.714264 639.576233,489.664795 639.964783,488.406677 
	C637.685059,488.406677 635.812988,488.667450 634.039673,488.359283 
	C627.950623,487.301208 624.850464,489.768219 622.862366,495.656097 
	C619.925171,504.354889 615.989685,512.716614 612.044983,522.273987 
	C607.472656,511.500824 603.379150,501.774445 599.192078,492.088501 
	C598.642273,490.816589 597.681519,488.812103 596.795471,488.748138 
	C592.140564,488.411987 587.448364,488.590851 582.496338,488.590851 
	C589.554749,504.989899 596.263245,520.527893 602.926941,536.085083 
	C605.122620,541.211182 602.252197,546.046448 596.671997,546.031494 
	C593.862732,546.023987 591.056824,544.764404 587.667297,543.927246 
	C586.196899,546.935059 584.503845,550.398193 582.108215,555.298401 
	C588.140564,556.335144 593.243347,557.212097 599.248413,558.051208 
M459.613525,486.514709 
	C459.613525,482.107452 459.613525,477.700226 459.613525,473.377075 
	C446.294037,473.377075 433.865021,473.377075 421.264313,473.377075 
	C421.264313,477.511658 421.264313,481.388275 421.264313,485.780334 
	C428.945740,485.780334 436.345703,485.780334 444.061432,485.780334 
	C444.061432,496.749359 444.271973,507.207367 443.997742,517.652710 
	C443.759674,526.721252 435.930237,530.651978 428.226593,525.707764 
	C425.921173,524.228088 424.038727,522.089355 421.722992,520.040710 
	C418.800201,523.554749 415.972412,526.954651 413.193085,530.296265 
	C420.850830,539.845337 433.907379,543.257263 445.984436,539.097229 
	C455.192352,535.925476 459.443237,528.679321 459.604492,515.469604 
	C459.718262,506.150879 459.621338,496.829529 459.613525,486.514709 
M751.157898,540.019714 
	C757.571289,539.348755 763.132019,536.999268 767.663025,531.810120 
	C765.802307,529.717468 764.107361,527.811340 762.301514,525.780518 
	C755.634521,532.478882 748.031189,533.713745 739.899536,530.741089 
	C734.292542,528.691284 730.746582,524.435486 729.584656,517.687988 
	C743.535034,517.687988 757.075012,517.687988 770.544617,517.687988 
	C772.346619,498.801819 758.492432,485.967682 740.424072,489.179718 
	C730.103455,491.014435 722.574585,498.417969 720.373352,508.896667 
	C718.219971,519.147583 722.832764,530.096313 730.498657,536.159485 
	C736.693359,541.059082 743.508423,539.586609 751.157898,540.019714 
M532.776306,484.505432 
	C532.776306,502.882935 532.776306,521.260437 532.776306,539.562805 
	C538.049072,539.562805 542.644226,539.562805 547.365173,539.562805 
	C547.365173,515.975891 547.365173,492.663635 547.365173,469.360992 
	C542.338196,469.360992 537.743164,469.360992 532.777832,469.360992 
	C532.777832,474.233948 532.777832,478.871338 532.776306,484.505432 
M561.265625,474.710388 
	C561.265625,496.300476 561.265625,517.890564 561.265625,539.618347 
	C566.541016,539.618347 571.146851,539.618347 575.947998,539.618347 
	C575.947998,516.143738 575.947998,492.865967 575.947998,469.369141 
	C571.178284,469.369141 566.577209,469.369141 561.547485,469.369141 
	C561.449646,470.892761 561.357361,472.329620 561.265625,474.710388 
M783.872314,500.671875 
	C787.273376,505.103485 790.674500,509.535095 794.043152,513.924438 
	C787.167664,522.719116 780.636780,531.072998 774.146545,539.374878 
	C781.552979,541.211975 786.934387,539.282593 790.693604,532.696228 
	C792.928711,528.780029 796.048950,525.369019 799.258362,521.079895 
	C802.186218,524.807678 805.231323,527.697937 807.075012,531.217468 
	C812.572571,541.712341 814.961914,540.325562 824.997559,539.148071 
	C818.425537,530.509583 811.976929,522.033264 805.513550,513.537598 
	C811.620422,505.555115 817.520996,497.842346 823.497742,490.030060 
	C816.425171,487.820923 811.842590,489.880432 808.362427,495.663391 
	C805.996033,499.595642 802.782532,503.018097 799.727844,506.951752 
	C796.466614,502.671753 793.039062,499.127350 790.756409,494.956421 
	C787.247803,488.545349 782.120483,488.591919 775.762573,489.776886 
	C778.502686,493.468079 780.966370,496.786896 783.872314,500.671875 
M836.260437,488.585846 
	C833.627014,489.138092 830.993652,489.690308 828.186890,490.278900 
	C828.186890,492.374634 828.186890,494.670593 828.186890,497.265503 
	C830.902588,497.443939 833.481384,497.613373 836.590088,497.817627 
	C836.590088,506.889679 836.550476,515.663635 836.604004,524.437073 
	C836.639587,530.269653 837.430908,536.557434 843.318237,538.834900 
	C849.898987,541.380554 857.087402,541.111511 863.897339,537.223694 
	C862.888794,534.686462 862.047913,532.571045 861.191040,530.415405 
	C859.077271,531.038757 857.259338,531.831421 855.369324,532.083191 
	C850.142761,532.779419 846.517761,530.647827 846.328003,525.973694 
	C845.946289,516.573181 846.214355,507.146332 846.214355,497.269226 
	C851.247375,497.269226 855.811462,497.269226 860.293579,497.269226 
	C860.293579,494.532440 860.293579,492.271667 860.293579,489.459290 
	C855.458740,489.459290 850.903259,489.459290 845.990601,489.459290 
	C845.990601,485.313080 845.990601,481.718597 845.990601,477.990540 
	C842.673096,477.990540 839.749817,477.990540 836.381714,477.990540 
	C836.381714,481.361206 836.381714,484.486359 836.260437,488.585846 
M261.866302,512.371033 
	C255.700104,511.775116 249.533890,511.179199 243.258850,510.572754 
	C243.258850,520.990356 243.258850,530.138916 243.258850,540.148132 
	C247.065659,535.540588 250.619370,531.822388 253.473312,527.628052 
	C256.591705,523.045044 259.062653,518.021545 261.866302,512.371033 
M677.943176,869.670532 
	C676.951721,869.028198 675.960205,868.385864 674.968750,867.743591 
	C674.840210,868.781921 674.711731,869.820312 674.583191,870.858643 
	C675.695984,870.705627 676.808777,870.552612 677.943176,869.670532 
z"/>
<path fill="#F7FBFC" opacity="1.000000" stroke="none" 
	d="
M543.468628,1025.000000 
	C543.385986,1019.826904 545.660095,1016.238708 550.611633,1013.916504 
	C552.310242,1013.119873 553.991150,1009.850647 553.794312,1007.901550 
	C553.191895,1001.936218 555.507141,1000.354675 561.078918,1000.884155 
	C564.813782,1001.239075 567.767395,999.754028 565.885559,994.356873 
	C572.769348,993.796509 574.056458,987.786194 577.647156,983.766846 
	C582.552795,978.275696 584.265869,970.764526 590.029907,966.271790 
	C592.539795,964.315369 595.755066,962.976929 598.860779,962.139404 
	C603.451782,960.901489 606.806091,958.977844 607.020447,953.708923 
	C607.053467,952.896179 607.072632,951.561707 607.504700,951.365967 
	C612.445679,949.128174 614.940186,944.781494 617.503052,940.397827 
	C618.471008,938.742126 619.952332,937.388184 621.181580,935.882019 
	C621.387146,935.629944 621.430359,935.216309 621.667419,935.023438 
	C625.803894,931.658386 629.973877,928.334412 634.098694,924.955261 
	C635.060974,924.166870 635.843567,923.162598 636.779602,922.338135 
	C638.471130,920.848145 640.190613,919.386780 641.955322,917.985168 
	C642.441223,917.599304 643.365112,917.638428 643.687500,917.192810 
	C646.535889,913.255615 649.298340,909.256165 652.071594,905.264954 
	C652.350769,904.863159 652.578979,903.994141 652.753723,904.014282 
	C659.336304,904.769470 659.495605,897.093384 664.156799,895.337524 
	C664.874573,895.067078 665.793335,894.413940 665.966736,893.763855 
	C667.029175,889.779785 668.245361,886.150757 673.517456,886.495056 
	C673.935303,886.522339 674.552124,885.329346 674.866272,884.611389 
	C675.192139,883.866699 675.171814,882.339050 675.457336,882.300537 
	C682.407227,881.364502 680.395325,870.025757 688.793640,870.820435 
	C689.300964,870.868469 690.061829,870.291626 690.395264,869.796997 
	C692.891357,866.093323 695.307983,862.336121 697.754395,858.598877 
	C698.025696,858.184387 698.242493,857.660278 698.628784,857.406372 
	C702.594971,854.799133 707.422729,852.941223 710.357300,849.475037 
	C713.643555,845.593201 716.101685,841.325684 720.670837,838.378906 
	C722.220825,837.379456 722.393494,833.905396 725.809692,833.722595 
	C726.876038,833.665527 727.927734,831.917725 728.843933,830.824646 
	C730.031372,829.408203 731.651489,828.021423 732.081909,826.361694 
	C733.819092,819.664246 743.174683,820.441956 744.425659,813.451599 
	C749.192871,812.532837 751.192322,808.982483 752.820007,804.920715 
	C753.049927,804.346680 754.832581,804.559265 755.467651,803.956177 
	C759.378052,800.242493 763.209595,796.442078 766.967163,792.573303 
	C768.130859,791.375244 768.905945,789.808594 769.999329,788.530823 
	C771.042297,787.312134 772.872070,786.436646 773.290894,785.081116 
	C774.233276,782.031921 775.821167,780.745483 779.032959,780.843811 
	C779.961487,780.872253 781.079895,779.559814 781.855286,778.645081 
	C783.172791,777.090820 784.574280,775.499756 785.430359,773.683655 
	C787.568909,769.147095 790.560059,766.212402 795.678345,764.749207 
	C797.810852,764.139648 799.561218,760.633362 800.603027,758.083679 
	C802.974609,752.279785 811.203064,752.168152 812.418213,745.455933 
	C812.445251,745.306580 812.561829,745.135681 812.687561,745.047485 
	C817.013916,742.011963 821.110046,738.540039 825.743286,736.080322 
	C830.505737,733.551941 835.776001,732.114929 835.255005,725.063721 
	C835.168457,723.892456 836.557129,722.471558 837.519226,721.393860 
	C839.310547,719.387268 841.265442,717.523315 843.201050,715.650452 
	C844.132202,714.749451 845.218384,714.009155 846.155884,713.113892 
	C847.521179,711.809814 848.820557,710.436401 850.138977,709.083740 
	C851.154541,708.041748 852.212036,707.033386 853.150940,705.925415 
	C854.539795,704.286621 855.857178,702.585999 857.164917,700.880920 
	C857.460205,700.496033 857.550964,699.612549 857.802490,699.585876 
	C863.761597,698.953491 864.332581,692.266602 868.745361,689.882263 
	C869.987000,689.211304 870.965698,688.012573 871.972046,686.966553 
	C872.417542,686.503479 872.567261,685.356873 872.960449,685.301880 
	C879.633789,684.368591 880.340759,676.753601 885.523254,674.139587 
	C886.570312,673.611389 887.250488,672.312134 888.025330,671.310730 
	C888.316589,670.934143 888.302734,670.056274 888.586060,669.977905 
	C893.747620,668.549438 895.953186,664.464539 898.100281,660.074585 
	C899.027039,658.179810 900.919983,656.707153 902.532654,655.214050 
	C903.828491,654.014282 905.352417,653.057190 906.796326,652.022034 
	C907.799561,651.302734 908.978210,650.772644 909.833984,649.914246 
	C911.839478,647.902344 914.499512,646.053955 915.455811,643.582703 
	C917.731262,637.702332 924.865967,637.565979 927.661560,631.890625 
	C929.688416,627.775879 934.599487,625.103271 938.132812,621.692749 
	C938.927185,620.925964 939.337280,619.762390 939.929504,618.784546 
	C940.519531,617.810364 940.900513,616.282410 941.743896,615.956360 
	C948.677368,613.276245 951.447327,606.588806 956.045593,601.659607 
	C957.597168,599.996460 960.099854,599.220520 962.712402,597.728027 
	C963.230835,594.642151 964.654053,591.529602 969.139221,590.856628 
	C970.129700,590.708069 970.991882,589.244690 971.770630,588.272644 
	C972.563782,587.282654 972.956726,585.535156 973.913269,585.187378 
	C978.505798,583.517273 978.655273,579.553406 978.941467,575.832275 
	C979.480957,568.818420 985.119202,562.250244 992.109131,560.916931 
	C992.575623,560.827942 993.013245,560.587585 993.748413,560.310486 
	C993.691589,555.983337 994.019348,551.690369 1000.419312,552.887085 
	C1000.900085,550.158142 1001.641357,547.757507 1001.677185,545.346375 
	C1001.739319,541.165100 1002.919434,538.295898 1007.613098,537.742188 
	C1008.324768,537.658264 1008.645264,535.608093 1009.501648,535.183777 
	C1015.384644,532.269165 1016.786865,523.973267 1024.611206,523.000366 
	C1025.000000,585.354248 1025.000000,647.708435 1024.627441,710.538818 
	C1019.126953,713.606384 1014.129822,716.390930 1010.584961,721.107300 
	C1009.299194,722.818115 1008.384766,724.851868 1006.926514,726.381226 
	C1001.972839,731.576477 996.826843,736.587646 991.809448,741.723145 
	C990.200317,743.370178 988.889709,745.318726 987.224365,746.899475 
	C978.077087,755.582397 968.817322,764.147339 959.715210,772.876892 
	C958.213562,774.317200 957.286804,776.362488 956.120300,778.145142 
	C954.804871,780.155457 953.831482,782.503479 952.159668,784.144714 
	C947.593262,788.628113 942.731079,792.809631 937.998230,797.124146 
	C928.328430,805.939270 922.487305,817.994263 912.834351,826.852783 
	C910.812073,828.708679 909.936523,832.219971 907.707397,833.372314 
	C899.340576,837.697937 897.347168,848.995911 887.410217,851.483704 
	C886.410889,851.733887 885.808167,853.507141 884.988953,854.548035 
	C879.727600,861.232971 874.583679,868.017456 869.099915,874.515015 
	C867.746033,876.119263 863.631531,876.736938 863.599426,877.886597 
	C863.439514,883.615601 857.618896,884.747314 855.650330,888.815735 
	C854.673462,890.834656 853.954773,893.291809 852.351562,894.633179 
	C848.229797,898.081970 843.287476,900.601318 839.393311,904.258911 
	C833.781677,909.529541 828.806335,915.477844 823.563965,921.141113 
	C823.455139,921.258728 823.349304,921.422363 823.331543,921.574951 
	C822.451477,929.144043 814.989319,931.078064 810.891785,935.891968 
	C807.486450,939.892517 802.922668,942.883789 799.218201,946.661499 
	C796.952026,948.972473 795.613953,952.186218 793.375427,954.533264 
	C788.983093,959.138794 784.176025,963.346436 779.709534,967.885010 
	C778.373962,969.242188 777.725342,971.249207 776.536011,972.783386 
	C775.147766,974.573914 773.741638,977.284607 771.942810,977.656067 
	C765.268738,979.033875 763.130493,984.359009 760.361328,989.315186 
	C759.030762,991.696594 757.973022,994.417480 756.089478,996.270935 
	C746.993347,1005.221924 735.197144,1011.769592 731.000000,1025.000000 
	C668.645752,1025.000000 606.291565,1025.000000 543.468628,1025.000000 
z"/>
<path fill="#F5FAFB" opacity="1.000000" stroke="none" 
	d="
M731.468628,1025.000000 
	C735.197144,1011.769592 746.993347,1005.221924 756.089478,996.270935 
	C757.973022,994.417480 759.030762,991.696594 760.361328,989.315186 
	C763.130493,984.359009 765.268738,979.033875 771.942810,977.656067 
	C773.741638,977.284607 775.147766,974.573914 776.536011,972.783386 
	C777.725342,971.249207 778.373962,969.242188 779.709534,967.885010 
	C784.176025,963.346436 788.983093,959.138794 793.375427,954.533264 
	C795.613953,952.186218 796.952026,948.972473 799.218201,946.661499 
	C802.922668,942.883789 807.486450,939.892517 810.891785,935.891968 
	C814.989319,931.078064 822.451477,929.144043 823.331543,921.574951 
	C823.349304,921.422363 823.455139,921.258728 823.563965,921.141113 
	C828.806335,915.477844 833.781677,909.529541 839.393311,904.258911 
	C843.287476,900.601318 848.229797,898.081970 852.351562,894.633179 
	C853.954773,893.291809 854.673462,890.834656 855.650330,888.815735 
	C857.618896,884.747314 863.439514,883.615601 863.599426,877.886597 
	C863.631531,876.736938 867.746033,876.119263 869.099915,874.515015 
	C874.583679,868.017456 879.727600,861.232971 884.988953,854.548035 
	C885.808167,853.507141 886.410889,851.733887 887.410217,851.483704 
	C897.347168,848.995911 899.340576,837.697937 907.707397,833.372314 
	C909.936523,832.219971 910.812073,828.708679 912.834351,826.852783 
	C922.487305,817.994263 928.328430,805.939270 937.998230,797.124146 
	C942.731079,792.809631 947.593262,788.628113 952.159668,784.144714 
	C953.831482,782.503479 954.804871,780.155457 956.120300,778.145142 
	C957.286804,776.362488 958.213562,774.317200 959.715210,772.876892 
	C968.817322,764.147339 978.077087,755.582397 987.224365,746.899475 
	C988.889709,745.318726 990.200317,743.370178 991.809448,741.723145 
	C996.826843,736.587646 1001.972839,731.576477 1006.926514,726.381226 
	C1008.384766,724.851868 1009.299194,722.818115 1010.584961,721.107300 
	C1014.129822,716.390930 1019.126953,713.606384 1024.627441,711.007446 
	C1025.000000,815.591309 1025.000000,920.182617 1025.000000,1025.000000 
	C927.312561,1025.000000 829.624939,1025.000000 731.468628,1025.000000 
z"/>
<path fill="#4FA2FB" opacity="1.000000" stroke="none" 
	d="
M162.422134,478.968445 
	C163.913452,440.617279 181.321854,411.402924 213.434708,390.858551 
	C226.223389,382.676910 240.364487,377.917603 256.263977,376.534210 
	C262.805573,377.229614 268.997467,375.714874 273.871063,380.482361 
	C280.214294,386.687469 286.630188,392.818268 293.161682,399.283569 
	C295.540863,403.002380 297.773254,406.418640 299.894226,410.158752 
	C288.529510,421.813477 277.271729,433.139893 266.024017,444.476257 
	C254.309616,456.283051 242.604889,468.099426 230.651276,480.032745 
	C229.954910,480.454041 229.503189,480.754211 228.754089,480.753143 
	C227.816711,480.314728 227.176651,480.057373 226.536774,480.057800 
	C205.323456,480.072845 184.110138,480.112549 162.896835,480.148651 
	C162.896835,480.148651 162.883072,480.106171 162.883209,479.875214 
	C162.821564,479.356232 162.667831,479.130951 162.422134,478.968445 
z"/>
<path fill="#2260C4" opacity="1.000000" stroke="none" 
	d="
M229.051453,481.054382 
	C229.503189,480.754211 229.954910,480.454041 231.129700,480.065582 
	C263.223053,479.989105 294.593353,480.000946 326.435852,480.031921 
	C335.807190,480.051025 344.706360,480.051025 354.295410,480.051025 
	C353.811951,475.968597 353.559845,472.709198 353.023773,469.497162 
	C349.555023,448.712372 340.789459,430.715454 324.505890,416.944122 
	C318.969177,412.261658 312.855804,408.261047 307.155792,403.655334 
	C310.158447,400.457214 313.158813,397.679260 315.803375,394.596069 
	C317.180695,392.990326 317.930481,390.846313 318.963715,388.945435 
	C341.133911,400.904541 356.807312,418.915680 365.766327,442.156311 
	C369.896179,452.869598 371.407501,464.629791 373.629700,476.008331 
	C374.057281,478.197815 372.808136,481.214020 371.392517,483.167755 
	C367.604858,488.395111 363.455536,493.388000 359.107635,498.162354 
	C358.011841,499.365570 355.632599,499.895111 353.841858,499.898010 
	C306.529999,499.975006 259.217957,499.942108 211.534744,499.560791 
	C217.126175,493.147217 223.088821,487.100800 229.051453,481.054382 
z"/>
<path fill="#4FA2FB" opacity="1.000000" stroke="none" 
	d="
M209.854294,556.000000 
	C209.854233,540.891846 209.854233,526.283691 209.854233,511.369995 
	C216.521149,511.369995 222.610901,511.369995 229.183395,511.369995 
	C229.183395,514.661438 229.164963,517.915100 229.186417,521.168457 
	C229.314880,540.649231 229.487717,560.129761 229.572845,579.610779 
	C229.618118,589.968811 227.241821,599.436401 219.027496,606.594971 
	C209.821594,614.617737 199.235016,616.793274 187.833755,612.872620 
	C176.395004,608.939148 168.788879,600.571045 167.320038,588.623230 
	C166.074188,578.489380 167.063034,568.080750 167.063034,557.719421 
	C173.690964,556.241455 182.075180,561.212219 184.744034,569.201843 
	C186.084152,573.213684 186.411774,577.652039 186.641647,581.927368 
	C187.068222,589.861328 191.357574,594.961975 198.083267,594.910339 
	C204.808792,594.858704 209.698242,589.609863 209.817169,581.982483 
	C209.949585,573.490234 209.851868,564.994324 209.854294,556.000000 
z"/>
<path fill="#2D6DDE" opacity="1.000000" stroke="none" 
	d="
M242.925446,587.002319 
	C241.441910,565.943420 248.476791,548.641357 262.791199,534.031128 
	C268.895081,527.801086 272.650208,520.291931 273.555695,511.332672 
	C280.167877,511.332672 286.400757,511.332672 292.958954,511.332672 
	C292.726776,522.297363 288.894653,531.695984 282.812408,540.236267 
	C279.725708,544.570496 276.320190,548.695923 272.843628,552.730286 
	C265.912415,560.773560 262.437958,570.030457 262.391724,580.632019 
	C262.360474,587.793457 262.614410,594.985962 262.040771,602.108154 
	C261.221558,612.278320 253.898483,618.981995 242.925903,619.782715 
	C242.925903,608.997437 242.925903,598.249634 242.925446,587.002319 
z"/>
<path fill="#172F48" opacity="1.000000" stroke="none" 
	d="
M696.709473,510.950195 
	C696.706787,498.161377 696.706787,485.866486 696.706787,473.366455 
	C700.128723,473.366455 703.076172,473.366455 706.372681,473.366455 
	C706.372681,495.439728 706.372681,517.463135 706.372681,539.413452 
	C701.109253,540.676208 697.531311,539.472961 694.160156,535.071045 
	C684.147644,521.996887 673.573486,509.352570 663.203369,496.552765 
	C662.091675,495.180542 660.878601,493.890594 658.778015,491.498077 
	C658.778015,508.255707 658.778015,523.749756 658.778015,539.535034 
	C655.190674,539.535034 652.278076,539.535034 648.984741,539.535034 
	C648.984741,517.584900 648.984741,495.562317 648.984741,473.564270 
	C654.127502,472.168030 657.539795,473.808655 660.876526,478.069641 
	C672.128174,492.437866 683.875183,506.418243 696.712097,520.392456 
	C696.712097,517.409668 696.712097,514.426880 696.709473,510.950195 
z"/>
<path fill="#172F48" opacity="1.000000" stroke="none" 
	d="
M510.067108,490.866028 
	C520.743591,497.077484 523.692322,506.524109 522.921082,518.225098 
	C510.121887,518.225098 497.534637,518.225098 484.866821,518.225098 
	C487.073059,528.990356 499.910400,531.483765 511.744843,523.549744 
	C514.283020,526.208740 516.874390,528.923523 519.380066,531.548523 
	C514.433533,540.811462 492.624756,543.788818 480.420593,535.404358 
	C469.814026,528.117432 466.277435,513.014038 472.704407,501.139648 
	C479.412201,488.746399 495.267639,484.278107 510.067108,490.866028 
M494.559265,509.246368 
	C499.171631,509.246368 503.783966,509.246368 508.482391,509.246368 
	C506.775604,501.938934 502.024323,498.415283 495.208618,499.081238 
	C489.375244,499.651215 485.488281,503.493530 485.173004,509.247620 
	C487.988007,509.247620 490.791382,509.247620 494.559265,509.246368 
z"/>
<path fill="#172F48" opacity="1.000000" stroke="none" 
	d="
M598.797302,558.070190 
	C593.243347,557.212097 588.140564,556.335144 582.108215,555.298401 
	C584.503845,550.398193 586.196899,546.935059 587.667297,543.927246 
	C591.056824,544.764404 593.862732,546.023987 596.671997,546.031494 
	C602.252197,546.046448 605.122620,541.211182 602.926941,536.085083 
	C596.263245,520.527893 589.554749,504.989899 582.496338,488.590851 
	C587.448364,488.590851 592.140564,488.411987 596.795471,488.748138 
	C597.681519,488.812103 598.642273,490.816589 599.192078,492.088501 
	C603.379150,501.774445 607.472656,511.500824 612.044983,522.273987 
	C615.989685,512.716614 619.925171,504.354889 622.862366,495.656097 
	C624.850464,489.768219 627.950623,487.301208 634.039673,488.359283 
	C635.812988,488.667450 637.685059,488.406677 639.964783,488.406677 
	C639.576233,489.664795 639.344788,490.714264 638.937012,491.690094 
	C631.896484,508.539642 624.824829,525.376160 617.780823,542.224182 
	C614.265442,550.632202 609.382202,557.407654 598.797302,558.070190 
z"/>
<path fill="#172F48" opacity="1.000000" stroke="none" 
	d="
M459.615967,487.012024 
	C459.621338,496.829529 459.718262,506.150879 459.604492,515.469604 
	C459.443237,528.679321 455.192352,535.925476 445.984436,539.097229 
	C433.907379,543.257263 420.850830,539.845337 413.193085,530.296265 
	C415.972412,526.954651 418.800201,523.554749 421.722992,520.040710 
	C424.038727,522.089355 425.921173,524.228088 428.226593,525.707764 
	C435.930237,530.651978 443.759674,526.721252 443.997742,517.652710 
	C444.271973,507.207367 444.061432,496.749359 444.061432,485.780334 
	C436.345703,485.780334 428.945740,485.780334 421.264313,485.780334 
	C421.264313,481.388275 421.264313,477.511658 421.264313,473.377075 
	C433.865021,473.377075 446.294037,473.377075 459.613525,473.377075 
	C459.613525,477.700226 459.613525,482.107452 459.615967,487.012024 
z"/>
<path fill="#172F48" opacity="1.000000" stroke="none" 
	d="
M750.695496,540.027588 
	C743.508423,539.586609 736.693359,541.059082 730.498657,536.159485 
	C722.832764,530.096313 718.219971,519.147583 720.373352,508.896667 
	C722.574585,498.417969 730.103455,491.014435 740.424072,489.179718 
	C758.492432,485.967682 772.346619,498.801819 770.544617,517.687988 
	C757.075012,517.687988 743.535034,517.687988 729.584656,517.687988 
	C730.746582,524.435486 734.292542,528.691284 739.899536,530.741089 
	C748.031189,533.713745 755.634521,532.478882 762.301514,525.780518 
	C764.107361,527.811340 765.802307,529.717468 767.663025,531.810120 
	C763.132019,536.999268 757.571289,539.348755 750.695496,540.027588 
M744.503418,510.809906 
	C749.947510,510.809906 755.391541,510.809906 760.848511,510.809906 
	C760.410034,502.249725 753.966553,496.652405 745.138123,496.853271 
	C736.508728,497.049561 730.151978,502.858368 730.090210,510.810547 
	C734.562744,510.810547 739.035278,510.810547 744.503418,510.809906 
z"/>
<path fill="#172F48" opacity="1.000000" stroke="none" 
	d="
M532.777100,484.007080 
	C532.777832,478.871338 532.777832,474.233948 532.777832,469.360992 
	C537.743164,469.360992 542.338196,469.360992 547.365173,469.360992 
	C547.365173,492.663635 547.365173,515.975891 547.365173,539.562805 
	C542.644226,539.562805 538.049072,539.562805 532.776306,539.562805 
	C532.776306,521.260437 532.776306,502.882935 532.777100,484.007080 
z"/>
<path fill="#172F48" opacity="1.000000" stroke="none" 
	d="
M561.265381,474.238434 
	C561.357361,472.329620 561.449646,470.892761 561.547485,469.369141 
	C566.577209,469.369141 571.178284,469.369141 575.947998,469.369141 
	C575.947998,492.865967 575.947998,516.143738 575.947998,539.618347 
	C571.146851,539.618347 566.541016,539.618347 561.265625,539.618347 
	C561.265625,517.890564 561.265625,496.300476 561.265381,474.238434 
z"/>
<path fill="#172F48" opacity="1.000000" stroke="none" 
	d="
M783.651184,500.388794 
	C780.966370,496.786896 778.502686,493.468079 775.762573,489.776886 
	C782.120483,488.591919 787.247803,488.545349 790.756409,494.956421 
	C793.039062,499.127350 796.466614,502.671753 799.727844,506.951752 
	C802.782532,503.018097 805.996033,499.595642 808.362427,495.663391 
	C811.842590,489.880432 816.425171,487.820923 823.497742,490.030060 
	C817.520996,497.842346 811.620422,505.555115 805.513550,513.537598 
	C811.976929,522.033264 818.425537,530.509583 824.997559,539.148071 
	C814.961914,540.325562 812.572571,541.712341 807.075012,531.217468 
	C805.231323,527.697937 802.186218,524.807678 799.258362,521.079895 
	C796.048950,525.369019 792.928711,528.780029 790.693604,532.696228 
	C786.934387,539.282593 781.552979,541.211975 774.146545,539.374878 
	C780.636780,531.072998 787.167664,522.719116 794.043152,513.924438 
	C790.674500,509.535095 787.273376,505.103485 783.651184,500.388794 
z"/>
<path fill="#83BDF9" opacity="1.000000" stroke="none" 
	d="
M228.754074,480.753143 
	C223.088821,487.100800 217.126175,493.147217 211.067535,499.503357 
	C201.057922,499.861053 191.142227,500.024658 181.232681,499.846252 
	C179.525864,499.815521 177.353043,498.750885 176.238495,497.444580 
	C171.640472,492.055481 167.367065,486.389404 162.935608,480.486877 
	C184.110138,480.112549 205.323456,480.072845 226.536774,480.057800 
	C227.176651,480.057373 227.816711,480.314728 228.754074,480.753143 
z"/>
<path fill="#172F48" opacity="1.000000" stroke="none" 
	d="
M836.321045,488.098663 
	C836.381714,484.486359 836.381714,481.361206 836.381714,477.990540 
	C839.749817,477.990540 842.673096,477.990540 845.990601,477.990540 
	C845.990601,481.718597 845.990601,485.313080 845.990601,489.459290 
	C850.903259,489.459290 855.458740,489.459290 860.293579,489.459290 
	C860.293579,492.271667 860.293579,494.532440 860.293579,497.269226 
	C855.811462,497.269226 851.247375,497.269226 846.214355,497.269226 
	C846.214355,507.146332 845.946289,516.573181 846.328003,525.973694 
	C846.517761,530.647827 850.142761,532.779419 855.369324,532.083191 
	C857.259338,531.831421 859.077271,531.038757 861.191040,530.415405 
	C862.047913,532.571045 862.888794,534.686462 863.897339,537.223694 
	C857.087402,541.111511 849.898987,541.380554 843.318237,538.834900 
	C837.430908,536.557434 836.639587,530.269653 836.604004,524.437073 
	C836.550476,515.663635 836.590088,506.889679 836.590088,497.817627 
	C833.481384,497.613373 830.902588,497.443939 828.186890,497.265503 
	C828.186890,494.670593 828.186890,492.374634 828.186890,490.278900 
	C830.993652,489.690308 833.627014,489.138092 836.321045,488.098663 
z"/>
<path fill="#2D6DDE" opacity="1.000000" stroke="none" 
	d="
M318.759857,388.670135 
	C317.930481,390.846313 317.180695,392.990326 315.803375,394.596069 
	C313.158813,397.679260 310.158447,400.457214 306.929199,403.656372 
	C306.552765,403.950958 306.099854,403.934845 305.846436,403.687500 
	C301.400299,401.953735 297.207550,400.467377 293.014832,398.981018 
	C286.630188,392.818268 280.214294,386.687469 273.871063,380.482361 
	C268.997467,375.714874 262.805573,377.229614 256.670532,376.638550 
	C260.684082,376.154816 265.046173,375.801117 269.906250,375.653320 
	C270.908264,375.790710 271.412323,375.722198 271.916351,375.653687 
	C288.453033,376.276367 304.079712,380.230072 318.759857,388.670135 
z"/>
<path fill="#2D6DDE" opacity="1.000000" stroke="none" 
	d="
M318.986481,608.020935 
	C309.917999,601.579712 306.524597,592.402588 306.487122,581.709595 
	C306.423035,563.417969 306.465576,545.125916 306.463684,526.834045 
	C306.463135,521.721252 306.463623,516.608521 306.463623,511.294922 
	C313.234528,511.294922 319.472260,511.294922 326.109741,511.294922 
	C326.109741,525.817871 326.121124,540.094666 326.105652,554.371399 
	C326.095917,563.350769 326.102448,572.330811 325.992432,581.309265 
	C325.928375,586.536499 327.546570,590.915710 332.299377,593.439026 
	C337.028229,595.949585 341.623749,595.126953 346.275055,591.817566 
	C346.739777,591.768555 347.034424,592.034302 346.862915,592.346619 
	C342.718750,597.542847 337.158234,596.878906 332.453461,595.351379 
	C327.161224,593.632996 324.067688,588.920105 324.037079,583.069092 
	C323.933441,563.267456 323.997559,543.465088 323.997559,523.662964 
	C323.997559,512.918091 323.993988,513.108765 313.226532,512.906433 
	C309.060303,512.828186 307.879272,514.086670 307.916199,518.233093 
	C308.108887,539.863953 307.849274,561.499512 308.142944,583.128113 
	C308.199310,587.278259 309.436493,591.677368 311.191315,595.470154 
	C313.231079,599.878845 316.440582,603.746216 319.103058,607.891235 
	C319.063721,607.934021 318.986481,608.020935 318.986481,608.020935 
z"/>
<path fill="#4FA2FB" opacity="1.000000" stroke="none" 
	d="
M261.841064,512.780518 
	C259.062653,518.021545 256.591705,523.045044 253.473312,527.628052 
	C250.619370,531.822388 247.065659,535.540588 243.258850,540.148132 
	C243.258850,530.138916 243.258850,520.990356 243.258850,510.572754 
	C249.533890,511.179199 255.700104,511.775116 261.841064,512.780518 
z"/>
<path fill="#2D6DDE" opacity="1.000000" stroke="none" 
	d="
M357.460815,561.436646 
	C361.049042,559.695679 364.637268,557.954712 368.479858,556.090332 
	C368.479858,568.475403 370.130951,579.842773 368.135284,590.529114 
	C364.013336,612.601196 338.133026,621.641357 319.149475,608.314453 
	C318.986481,608.020935 319.063721,607.934021 319.468170,607.945435 
	C321.257660,608.475037 322.699463,608.878174 324.019104,609.529053 
	C342.077057,618.435059 363.358917,608.957031 366.876465,589.077820 
	C368.549835,579.620789 367.482788,569.678101 367.619934,559.954895 
	C367.622894,559.747131 367.174805,559.532959 366.593628,559.016479 
	C363.875000,559.981750 360.957581,561.017639 357.900574,561.894348 
	C357.760956,561.735229 357.460815,561.436646 357.460815,561.436646 
z"/>
<path fill="#2260C4" opacity="1.000000" stroke="none" 
	d="
M290.513245,549.547058 
	C291.131470,548.609070 291.749695,547.671143 292.951233,545.848145 
	C293.071716,548.280884 293.198608,549.667175 293.200134,551.053528 
	C293.217987,567.133667 293.211090,583.213806 293.223267,599.293945 
	C293.229523,607.548157 291.645477,615.426025 287.417480,622.923706 
	C287.083496,623.079163 286.959045,622.973328 287.012360,622.601318 
	C290.998657,613.095459 292.274841,603.552490 292.069305,593.641052 
	C291.804016,580.847046 292.039795,568.043152 291.959076,555.244141 
	C291.948181,553.517822 291.351257,551.795227 290.903137,549.934448 
	C290.780609,549.798096 290.513245,549.547058 290.513245,549.547058 
z"/>
<path fill="#2260C4" opacity="1.000000" stroke="none" 
	d="
M268.278961,643.328552 
	C260.785522,648.592224 252.307251,650.239868 243.104645,650.549866 
	C243.104645,644.019165 243.104645,637.918945 243.104645,633.335083 
	C250.224518,629.909668 256.562256,626.860535 263.325806,623.779297 
	C263.751587,623.747131 264.011108,624.011658 263.857208,624.316895 
	C258.557953,627.082886 253.373749,629.467041 248.290375,632.049683 
	C246.724197,632.845459 244.353012,634.058472 244.210938,635.294250 
	C243.709808,639.653442 244.016006,644.105530 244.016006,648.833313 
	C253.157684,649.402100 260.506683,645.931519 268.051453,643.053955 
	C268.127380,643.145386 268.278961,643.328552 268.278961,643.328552 
z"/>
<path fill="#2260C4" opacity="1.000000" stroke="none" 
	d="
M268.634766,617.569214 
	C272.733612,610.602478 274.049622,603.069702 273.818054,595.037170 
	C273.616852,588.059998 273.826477,581.044495 274.366486,574.085693 
	C274.576111,571.384338 276.190552,568.791992 277.519043,566.017944 
	C277.873108,565.885803 278.037231,566.027893 277.982422,566.406799 
	C277.284027,568.832581 276.187195,570.854797 276.074585,572.930481 
	C275.565033,582.324341 275.341187,591.733643 274.999176,601.136719 
	C274.771942,607.385254 273.089966,613.126282 268.922119,617.905640 
	C268.825409,617.794312 268.634766,617.569214 268.634766,617.569214 
z"/>
<path fill="#2D6DDE" opacity="1.000000" stroke="none" 
	d="
M346.597717,591.630005 
	C347.473999,587.258179 349.151093,583.057068 349.360138,578.784119 
	C349.693542,571.968750 351.454498,566.145203 357.170776,561.592407 
	C357.460815,561.436646 357.760956,561.735229 357.736267,562.188721 
	C355.814148,565.848145 353.231232,568.850525 352.202576,572.314392 
	C351.060455,576.160217 351.733826,580.515198 350.856079,584.480103 
	C350.265137,587.149353 348.354584,589.526489 347.034424,592.034302 
	C347.034424,592.034302 346.739777,591.768555 346.597717,591.630005 
z"/>
<path fill="#F7FBFC" opacity="1.000000" stroke="none" 
	d="
M677.932373,870.035034 
	C676.808777,870.552612 675.695984,870.705627 674.583252,870.858643 
	C674.711731,869.820312 674.840210,868.781921 674.968750,867.743591 
	C675.960205,868.385864 676.951721,869.028198 677.932373,870.035034 
z"/>
<path fill="#2260C4" opacity="1.000000" stroke="none" 
	d="
M279.744690,562.712463 
	C280.883820,561.152771 282.022980,559.593140 283.526001,557.961670 
	C283.889862,557.889893 284.038361,558.029358 283.997162,558.361450 
	C282.649994,560.138367 281.344025,561.583252 279.963379,562.950439 
	C279.888702,562.872742 279.744690,562.712463 279.744690,562.712463 
z"/>
<path fill="#2260C4" opacity="1.000000" stroke="none" 
	d="
M287.144928,623.132935 
	C286.420868,624.757324 285.635406,626.327881 284.494995,628.011902 
	C284.140076,628.125366 283.967560,627.976013 284.011139,627.642761 
	C285.022858,625.864136 285.990967,624.418762 286.959045,622.973328 
	C286.959045,622.973328 287.083496,623.079163 287.144928,623.132935 
z"/>
<path fill="#2260C4" opacity="1.000000" stroke="none" 
	d="
M285.542053,555.538818 
	C286.437347,554.380249 287.332642,553.221619 288.572632,551.990540 
	C288.917297,551.918091 289.031738,552.032288 288.898438,552.324829 
	C287.849426,553.750671 286.933685,554.884094 285.899811,555.896973 
	C285.781677,555.776428 285.542023,555.538818 285.542053,555.538818 
z"/>
<path fill="#2260C4" opacity="1.000000" stroke="none" 
	d="
M266.011230,621.009705 
	C266.712982,619.981445 267.414734,618.953247 268.375610,617.747070 
	C268.634766,617.569214 268.825409,617.794312 268.790710,618.202393 
	C267.856354,619.425415 266.956696,620.240234 266.045410,621.043823 
	C266.033813,621.032593 266.011230,621.009705 266.011230,621.009705 
z"/>
<path fill="#2260C4" opacity="1.000000" stroke="none" 
	d="
M271.946442,640.949402 
	C270.933899,641.697754 269.921356,642.446167 268.593872,643.261536 
	C268.278961,643.328552 268.127380,643.145386 268.246643,642.795410 
	C269.558716,641.944641 270.751556,641.443787 271.951019,640.948669 
	C271.957642,640.954468 271.946442,640.949402 271.946442,640.949402 
z"/>
<path fill="#2260C4" opacity="1.000000" stroke="none" 
	d="
M277.790833,565.815063 
	C278.204681,564.837036 278.700836,563.929810 279.470825,562.867554 
	C279.744690,562.712463 279.888702,562.872742 279.926086,563.267822 
	C279.321411,564.451172 278.679321,565.239563 278.037231,566.027893 
	C278.037231,566.027893 277.873108,565.885803 277.790833,565.815063 
z"/>
<path fill="#2260C4" opacity="1.000000" stroke="none" 
	d="
M284.226746,628.199585 
	C283.796478,629.158264 283.279541,630.042847 282.421570,631.004517 
	C282.080475,631.081665 281.958801,630.969543 281.998901,630.652527 
	C282.681854,629.549011 283.324707,628.762512 283.967560,627.976013 
	C283.967560,627.976013 284.140076,628.125366 284.226746,628.199585 
z"/>
<path fill="#2260C4" opacity="1.000000" stroke="none" 
	d="
M274.275360,639.287354 
	C273.696442,639.812561 273.117523,640.337769 272.242523,640.906189 
	C271.946442,640.949402 271.957642,640.954468 272.010498,640.635742 
	C272.698975,639.865112 273.334656,639.413147 274.046448,639.042847 
	C274.122589,639.124512 274.275360,639.287354 274.275360,639.287354 
z"/>
<path fill="#4FA2FB" opacity="1.000000" stroke="none" 
	d="
M271.627258,375.494171 
	C271.412323,375.722198 270.908264,375.790710 270.245819,375.739075 
	C270.504333,375.524170 270.921265,375.429413 271.627258,375.494171 
z"/>
<path fill="#2260C4" opacity="1.000000" stroke="none" 
	d="
M264.487213,622.501160 
	C264.823425,622.068054 265.159607,621.634949 265.753510,621.105713 
	C266.011230,621.009705 266.033813,621.032593 266.004944,621.335022 
	C265.654785,622.095398 265.333496,622.553345 264.883057,622.881592 
	C264.753937,622.751892 264.487213,622.501160 264.487213,622.501160 
z"/>
<path fill="#2260C4" opacity="1.000000" stroke="none" 
	d="
M263.627014,623.609985 
	C263.642242,623.185913 263.837433,622.943604 264.287628,622.623535 
	C264.487213,622.501160 264.753937,622.751892 264.773560,623.099915 
	C264.593170,623.720093 264.332489,623.907959 264.011108,624.011658 
	C264.011108,624.011658 263.751587,623.747131 263.627014,623.609985 
z"/>
<path fill="#2260C4" opacity="1.000000" stroke="none" 
	d="
M282.140198,631.138916 
	C282.065063,631.494812 281.930176,631.793518 281.479370,632.123657 
	C281.163422,632.155151 280.975250,631.975037 281.085327,631.759705 
	C281.391174,631.274780 281.645630,631.083191 281.958801,630.969543 
	C281.958801,630.969543 282.080475,631.081665 282.140198,631.138916 
z"/>
<path fill="#2260C4" opacity="1.000000" stroke="none" 
	d="
M281.258820,632.243774 
	C281.295837,632.675232 281.131439,632.955811 280.530792,633.183899 
	C280.200562,633.193481 279.979919,632.979858 280.090698,632.763062 
	C280.400085,632.275574 280.658020,632.085144 280.975250,631.975037 
	C280.975250,631.975037 281.163422,632.155151 281.258820,632.243774 
z"/>
<path fill="#2260C4" opacity="1.000000" stroke="none" 
	d="
M280.311249,633.299927 
	C280.255310,633.693298 280.088684,633.980164 279.586945,634.263794 
	C279.251831,634.260498 278.981781,633.981567 279.092651,633.764771 
	C279.402740,633.277222 279.661530,633.087830 279.979919,632.979858 
	C279.979919,632.979858 280.200562,633.193481 280.311249,633.299927 
z"/>
<path fill="#2260C4" opacity="1.000000" stroke="none" 
	d="
M279.379700,634.406494 
	C279.365875,634.845642 279.170410,635.096924 278.586945,635.284058 
	C278.252747,635.261841 277.982513,634.982300 278.093414,634.765442 
	C278.403992,634.278015 278.663147,634.089050 278.981781,633.981567 
	C278.981781,633.981567 279.251831,634.260498 279.379700,634.406494 
z"/>
<path fill="#2260C4" opacity="1.000000" stroke="none" 
	d="
M278.380676,635.408203 
	C278.366882,635.849243 278.171906,636.102905 277.589203,636.291199 
	C277.254791,636.266846 276.982452,635.982422 277.093323,635.765503 
	C277.404114,635.277954 277.663544,635.089233 277.982513,634.982300 
	C277.982513,634.982300 278.252747,635.261841 278.380676,635.408203 
z"/>
<path fill="#2260C4" opacity="1.000000" stroke="none" 
	d="
M277.382446,636.416748 
	C277.366211,636.854553 277.165161,637.094727 276.572510,637.263306 
	C276.238037,637.239380 275.981354,636.981079 276.092316,636.764160 
	C276.403564,636.277039 276.663269,636.088745 276.982452,635.982422 
	C276.982452,635.982422 277.254791,636.266846 277.382446,636.416748 
z"/>
<path fill="#2260C4" opacity="1.000000" stroke="none" 
	d="
M276.362091,637.372681 
	C276.349884,637.806702 276.144867,638.049255 275.537506,638.216919 
	C275.203918,638.200073 274.979401,637.979065 275.090515,637.762207 
	C275.402039,637.275024 275.661957,637.086975 275.981354,636.981079 
	C275.981354,636.981079 276.238037,637.239380 276.362091,637.372681 
z"/>
<path fill="#2260C4" opacity="1.000000" stroke="none" 
	d="
M275.315491,638.311279 
	C275.204498,638.665283 274.981873,638.908142 274.517303,639.219238 
	C274.275360,639.287354 274.122589,639.124512 274.161072,638.829468 
	C274.402252,638.269043 274.662201,638.083862 274.979401,637.979065 
	C274.979401,637.979065 275.203918,638.200073 275.315491,638.311279 
z"/>
<path fill="#2260C4" opacity="1.000000" stroke="none" 
	d="
M283.816345,557.819458 
	C283.781372,557.400818 283.933685,557.112732 284.518311,556.863770 
	C284.836853,556.842773 285.026367,557.026428 284.918030,557.243591 
	C284.612854,557.732056 284.355774,557.921631 284.038361,558.029358 
	C284.038361,558.029358 283.889862,557.889893 283.816345,557.819458 
z"/>
<path fill="#2260C4" opacity="1.000000" stroke="none" 
	d="
M284.741058,556.752014 
	C284.710541,556.323242 284.871338,556.039368 285.334839,555.674194 
	C285.542023,555.538818 285.781677,555.776428 285.791870,556.115845 
	C285.605713,556.730225 285.347137,556.920593 285.026367,557.026428 
	C285.026367,557.026428 284.836853,556.842773 284.741058,556.752014 
z"/>
<path fill="#2260C4" opacity="1.000000" stroke="none" 
	d="
M288.859375,551.861755 
	C288.942810,551.509094 289.084167,551.212769 289.539337,550.887451 
	C289.853119,550.858521 290.030029,551.030029 289.920654,551.248169 
	C289.612762,551.739502 289.352905,551.928101 289.031738,552.032288 
	C289.031738,552.032288 288.917297,551.918091 288.859375,551.861755 
z"/>
<path fill="#2260C4" opacity="1.000000" stroke="none" 
	d="
M289.763580,550.773865 
	C289.720673,550.351196 289.866455,550.063477 290.312317,549.686523 
	C290.513245,549.547058 290.780609,549.798096 290.789886,550.142883 
	C290.598907,550.748047 290.342529,550.928833 290.030029,551.030029 
	C290.030029,551.030029 289.853119,550.858521 289.763580,550.773865 
z"/>
<path fill="#83BDF9" opacity="1.000000" stroke="none" 
	d="
M162.343292,479.190399 
	C162.667831,479.130951 162.821564,479.356232 162.876282,479.854004 
	C162.515732,479.987549 162.314148,479.770416 162.343292,479.190399 
z"/>
<path fill="#276CE5" opacity="1.000000" stroke="none" 
	d="
M325.963654,480.012787 
	C294.593353,480.000946 263.223053,479.989105 231.374329,479.944427 
	C242.604889,468.099426 254.309616,456.283051 266.024017,444.476257 
	C277.271729,433.139893 288.529510,421.813477 300.225372,410.175659 
	C301.109528,409.887482 301.551178,409.906342 302.024780,410.282959 
	C303.194733,412.453613 304.339905,414.261902 305.469482,416.079926 
	C317.645905,435.677185 324.820587,456.878418 325.963654,480.012787 
z"/>
<path fill="#83BDF9" opacity="1.000000" stroke="none" 
	d="
M301.992798,409.925171 
	C301.551178,409.906342 301.109528,409.887482 300.336761,409.851746 
	C297.773254,406.418640 295.540863,403.002380 293.161682,399.283569 
	C297.207550,400.467377 301.400299,401.953735 305.694153,403.994019 
	C304.527802,406.340302 303.260284,408.132751 301.992798,409.925171 
z"/>
<path fill="#4FA2FB" opacity="1.000000" stroke="none" 
	d="
M302.024780,410.282959 
	C303.260284,408.132751 304.527802,406.340302 305.947571,404.241364 
	C306.099854,403.934845 306.552765,403.950958 306.779358,403.949921 
	C312.855804,408.261047 318.969177,412.261658 324.505890,416.944122 
	C340.789459,430.715454 349.555023,448.712372 353.023773,469.497162 
	C353.559845,472.709198 353.811951,475.968597 354.295410,480.051025 
	C344.706360,480.051025 335.807190,480.051025 326.435852,480.031921 
	C324.820587,456.878418 317.645905,435.677185 305.469482,416.079926 
	C304.339905,414.261902 303.194733,412.453613 302.024780,410.282959 
z"/>
<path fill="#F7FBFC" opacity="1.000000" stroke="none" 
	d="
M494.077026,509.247009 
	C490.791382,509.247620 487.988007,509.247620 485.173004,509.247620 
	C485.488281,503.493530 489.375244,499.651215 495.208618,499.081238 
	C502.024323,498.415283 506.775604,501.938934 508.482391,509.246368 
	C503.783966,509.246368 499.171631,509.246368 494.077026,509.247009 
z"/>
<path fill="#F5FAFB" opacity="1.000000" stroke="none" 
	d="
M744.005615,510.810242 
	C739.035278,510.810547 734.562744,510.810547 730.090210,510.810547 
	C730.151978,502.858368 736.508728,497.049561 745.138123,496.853271 
	C753.966553,496.652405 760.410034,502.249725 760.848511,510.809906 
	C755.391541,510.809906 749.947510,510.809906 744.005615,510.810242 
z"/>
<path fill="#276CE5" opacity="1.000000" stroke="none" 
	d="
M346.862915,592.346619 
	C348.354584,589.526489 350.265137,587.149353 350.856079,584.480103 
	C351.733826,580.515198 351.060455,576.160217 352.202576,572.314392 
	C353.231232,568.850525 355.814148,565.848145 357.875854,562.347900 
	C360.957581,561.017639 363.875000,559.981750 366.593628,559.016479 
	C367.174805,559.532959 367.622894,559.747131 367.619934,559.954895 
	C367.482788,569.678101 368.549835,579.620789 366.876465,589.077820 
	C363.358917,608.957031 342.077057,618.435059 324.019104,609.529053 
	C322.699463,608.878174 321.257660,608.475037 319.507507,607.902649 
	C316.440582,603.746216 313.231079,599.878845 311.191315,595.470154 
	C309.436493,591.677368 308.199310,587.278259 308.142944,583.128113 
	C307.849274,561.499512 308.108887,539.863953 307.916199,518.233093 
	C307.879272,514.086670 309.060303,512.828186 313.226532,512.906433 
	C323.993988,513.108765 323.997559,512.918091 323.997559,523.662964 
	C323.997559,543.465088 323.933441,563.267456 324.037079,583.069092 
	C324.067688,588.920105 327.161224,593.632996 332.453461,595.351379 
	C337.158234,596.878906 342.718750,597.542847 346.862915,592.346619 
z"/>
<path fill="#2D6DDE" opacity="1.000000" stroke="none" 
	d="
M289.920654,551.248169 
	C290.342529,550.928833 290.598907,550.748047 290.912415,550.279297 
	C291.351257,551.795227 291.948181,553.517822 291.959076,555.244141 
	C292.039795,568.043152 291.804016,580.847046 292.069305,593.641052 
	C292.274841,603.552490 290.998657,613.095459 287.012390,622.601318 
	C285.990967,624.418762 285.022858,625.864136 284.011139,627.642761 
	C283.324707,628.762512 282.681854,629.549011 281.998901,630.652527 
	C281.645630,631.083191 281.391174,631.274780 281.085327,631.759705 
	C280.658020,632.085144 280.400085,632.275574 280.090698,632.763062 
	C279.661530,633.087830 279.402740,633.277222 279.092651,633.764771 
	C278.663147,634.089050 278.403992,634.278015 278.093414,634.765442 
	C277.663544,635.089233 277.404114,635.277954 277.093323,635.765503 
	C276.663269,636.088745 276.403564,636.277039 276.092316,636.764160 
	C275.661957,637.086975 275.402039,637.275024 275.090515,637.762207 
	C274.662201,638.083862 274.402252,638.269043 274.084930,638.747803 
	C273.334656,639.413147 272.698975,639.865112 272.003845,640.630005 
	C270.751556,641.443787 269.558716,641.944641 268.170685,642.703979 
	C260.506683,645.931519 253.157684,649.402100 244.016006,648.833313 
	C244.016006,644.105530 243.709808,639.653442 244.210938,635.294250 
	C244.353012,634.058472 246.724197,632.845459 248.290375,632.049683 
	C253.373749,629.467041 258.557953,627.082886 263.857208,624.316895 
	C264.332489,623.907959 264.593170,623.720093 264.902710,623.229614 
	C265.333496,622.553345 265.654785,622.095398 266.016541,621.346313 
	C266.956696,620.240234 267.856354,619.425415 268.887451,618.313721 
	C273.089966,613.126282 274.771942,607.385254 274.999176,601.136719 
	C275.341187,591.733643 275.565033,582.324341 276.074585,572.930481 
	C276.187195,570.854797 277.284027,568.832581 277.982422,566.406799 
	C278.679321,565.239563 279.321411,564.451172 280.000793,563.345459 
	C281.344025,561.583252 282.649994,560.138367 283.997162,558.361450 
	C284.355774,557.921631 284.612854,557.732056 284.918030,557.243591 
	C285.347137,556.920593 285.605713,556.730225 285.910034,556.236389 
	C286.933685,554.884094 287.849426,553.750671 288.898438,552.324829 
	C289.352905,551.928101 289.612762,551.739502 289.920654,551.248169 
z"/>
</svg>